<svg width="125" height="41" viewBox="0 0 125 41" fill="none" xmlns="http://www.w3.org/2000/svg">
<path d="M13.3438 32.657L31.4438 34.808C33.3659 35.0304 35.2979 34.4832 36.818 33.286C38.338 32.0888 39.3227 30.3387 39.5568 28.418L39.6998 27.218L26.2658 16.599C25.66 16.2352 24.9561 16.0687 24.2515 16.1224C23.5469 16.1762 22.8764 16.4476 22.3328 16.899L7.48682 28.237C7.98697 29.4246 8.7921 30.4588 9.82066 31.235C10.8492 32.0112 12.0646 32.5018 13.3438 32.657Z" fill="url(#paint0_linear_1_1546)"/>
<path d="M35.3178 2.202L17.2178 0.0510026C15.2957 -0.171372 13.3637 0.375795 11.8437 1.57303C10.3236 2.77026 9.339 4.5203 9.10484 6.441L6.95383 24.541C6.73146 26.4631 7.27863 28.3951 8.47586 29.9152C9.67309 31.4352 11.4231 32.4198 13.3438 32.654L31.4438 34.805C33.3659 35.0274 35.298 34.4802 36.818 33.283C38.3381 32.0857 39.3227 30.3357 39.5568 28.415L41.7078 10.315C41.9299 8.39295 41.3827 6.46107 40.1855 4.94108C38.9883 3.42109 37.2384 2.43642 35.3178 2.202Z" fill="#FFE922"/>
<path d="M46.4149 32.517L39.7009 27.217L39.5579 28.417C39.3242 30.338 38.3397 32.0883 36.8196 33.2856C35.2994 34.483 33.3671 35.03 31.4449 34.807L13.3449 32.656C12.0652 32.5003 10.8494 32.0092 9.82055 31.2325C8.79169 30.4558 7.98629 29.4211 7.48587 28.233L1.56987 32.751C-1.33813 35.077 0.0698678 40.128 3.62887 40.151L44.5449 40.216C48.3919 40.248 49.7799 34.545 46.4149 32.517Z" fill="#67C3EA"/>
<path d="M64.6636 26.775L60.5879 16.0338H60.5215C60.5436 16.2607 60.563 16.5374 60.5796 16.8639C60.5962 17.1904 60.61 17.5473 60.6211 17.9347C60.6322 18.3165 60.6377 18.7067 60.6377 19.1051V26.775H59.3262V14.6393H61.418L65.2612 24.733H65.3193L69.2207 14.6393H71.2959V26.775H69.9014V19.0055C69.9014 18.6458 69.9069 18.2861 69.918 17.9264C69.929 17.5612 69.9429 17.2181 69.9595 16.8971C69.9761 16.5706 69.9927 16.2884 70.0093 16.0504H69.9429L65.8174 26.775H64.6636ZM83.7969 14.6393V22.4918C83.7969 23.3496 83.6226 24.1132 83.2739 24.7828C82.9308 25.4524 82.4106 25.9809 81.7134 26.3683C81.0161 26.7501 80.1418 26.941 79.0903 26.941C77.5907 26.941 76.4479 26.5343 75.6621 25.7208C74.8818 24.9073 74.4917 23.8199 74.4917 22.4586V14.6393H75.9111V22.5001C75.9111 23.5294 76.1823 24.3235 76.7246 24.8824C77.2725 25.4414 78.0887 25.7208 79.1733 25.7208C79.9149 25.7208 80.5208 25.588 80.9912 25.3224C81.4671 25.0512 81.8185 24.6749 82.0454 24.1935C82.2778 23.7065 82.394 23.1448 82.394 22.5084V14.6393H83.7969ZM96.5054 26.775H94.8784L88.2627 16.5817H88.1963C88.2129 16.8528 88.2323 17.1627 88.2544 17.5114C88.2765 17.8545 88.2931 18.2225 88.3042 18.6154C88.3208 19.0027 88.3291 19.3984 88.3291 19.8024V26.775H87.0176V14.6393H88.6362L95.2271 24.7994H95.2852C95.2741 24.6058 95.2603 24.3318 95.2437 23.9777C95.2271 23.618 95.2104 23.2334 95.1938 22.8239C95.1828 22.4088 95.1772 22.0242 95.1772 21.67V14.6393H96.5054V26.775ZM109.455 20.5909C109.455 21.9578 109.206 23.1005 108.708 24.0192C108.209 24.9323 107.487 25.6212 106.541 26.0861C105.6 26.5454 104.458 26.775 103.113 26.775H99.8174V14.6393H103.478C104.712 14.6393 105.775 14.8662 106.666 15.3199C107.556 15.7682 108.243 16.435 108.724 17.3204C109.211 18.2003 109.455 19.2905 109.455 20.5909ZM107.969 20.6407C107.969 19.5506 107.786 18.6513 107.421 17.943C107.061 17.2347 106.53 16.7089 105.827 16.3658C105.13 16.0172 104.275 15.8429 103.262 15.8429H101.229V25.5631H102.947C104.618 25.5631 105.871 25.1508 106.707 24.3263C107.548 23.5017 107.969 22.2732 107.969 20.6407ZM112.152 26.775V14.6393H113.563V26.775H112.152ZM123.749 23.546C123.749 24.2654 123.569 24.8797 123.209 25.3888C122.855 25.8924 122.357 26.277 121.715 26.5426C121.073 26.8082 120.318 26.941 119.449 26.941C118.989 26.941 118.555 26.9189 118.146 26.8746C117.736 26.8304 117.36 26.7667 117.017 26.6837C116.674 26.6007 116.372 26.4983 116.112 26.3766V25.0236C116.527 25.1951 117.033 25.3556 117.631 25.505C118.229 25.6489 118.854 25.7208 119.507 25.7208C120.116 25.7208 120.63 25.6406 121.051 25.4801C121.471 25.3141 121.79 25.0789 122.005 24.7745C122.227 24.4646 122.337 24.0939 122.337 23.6622C122.337 23.2472 122.246 22.9013 122.063 22.6246C121.881 22.3424 121.576 22.0878 121.15 21.861C120.73 21.6285 120.154 21.3823 119.424 21.1222C118.909 20.9396 118.455 20.7404 118.062 20.5245C117.67 20.3032 117.34 20.0542 117.075 19.7775C116.809 19.5008 116.607 19.1798 116.469 18.8146C116.336 18.4493 116.27 18.0315 116.27 17.5612C116.27 16.9137 116.433 16.3603 116.759 15.901C117.091 15.4362 117.548 15.082 118.129 14.8385C118.715 14.5895 119.388 14.465 120.146 14.465C120.793 14.465 121.391 14.5258 121.939 14.6476C122.492 14.7693 122.999 14.9326 123.458 15.1373L123.018 16.3492C122.581 16.1666 122.116 16.0144 121.624 15.8927C121.137 15.771 120.633 15.7101 120.113 15.7101C119.593 15.7101 119.153 15.7876 118.793 15.9425C118.439 16.0919 118.168 16.305 117.979 16.5817C117.791 16.8584 117.697 17.1876 117.697 17.5695C117.697 17.9956 117.786 18.3497 117.963 18.632C118.146 18.9142 118.433 19.166 118.826 19.3873C119.225 19.6031 119.75 19.83 120.403 20.068C121.117 20.3281 121.723 20.6048 122.221 20.8981C122.719 21.1858 123.098 21.54 123.358 21.9606C123.618 22.3756 123.749 22.9041 123.749 23.546Z" fill="white"/>
<defs>
<linearGradient id="paint0_linear_1_1546" x1="8.83976" y1="29.627" x2="29.9267" y2="16.5971" gradientUnits="userSpaceOnUse">
<stop stop-color="#29ABE2"/>
<stop offset="1" stop-color="#29ABE2" stop-opacity="0.302"/>
</linearGradient>
</defs>
</svg>
