<svg width="187" height="40" viewBox="0 0 187 40" fill="none" xmlns="http://www.w3.org/2000/svg">
<path d="M35.318 2.18795L17.218 0.0509479C15.3015 -0.174714 13.3735 0.366031 11.854 1.5554C10.3344 2.74477 9.34631 4.4864 9.10499 6.40095L6.95399 24.391C6.73629 26.3067 7.28646 28.2306 8.48408 29.7416C9.68169 31.2525 11.4292 32.2275 13.344 32.4529L31.444 34.59C33.3604 34.8156 35.2884 34.2749 36.808 33.0855C38.3276 31.8961 39.3157 30.1545 39.557 28.24L41.708 10.2499C41.9251 8.33434 41.3748 6.41069 40.1772 4.89984C38.9797 3.38899 37.2326 2.41392 35.318 2.18795Z" fill="#FFE922"/>
<path d="M46.415 32.2989L39.701 26.9989L39.558 28.1989C39.3243 30.1198 38.3399 31.8702 36.8197 33.0675C35.2995 34.2648 33.3672 34.8118 31.445 34.5889L13.345 32.4379C12.0653 32.2821 10.8495 31.791 9.82067 31.0143C8.79181 30.2376 7.98641 29.2029 7.48599 28.0149L1.56999 32.5329C-1.33801 34.8589 0.0699899 39.9099 3.62899 39.9329L44.545 39.9979C48.392 40.0299 49.78 34.3269 46.415 32.2989Z" fill="#67C3EA"/>
<path d="M13.344 32.44L31.444 34.591C33.3661 34.8134 35.2981 34.2662 36.8182 33.069C38.3382 31.8717 39.3228 30.1217 39.557 28.201L39.7 27.001L26.266 16.382C25.6602 16.0182 24.9563 15.8516 24.2517 15.9054C23.5471 15.9591 22.8766 16.2305 22.333 16.682L7.487 28.02C7.98715 29.2075 8.79229 30.2418 9.82084 31.018C10.8494 31.7942 12.0648 32.2847 13.344 32.44Z" fill="url(#paint0_linear_1_5)"/>
<path d="M58.4972 13.3063H60.2841L64.4858 23.5691H64.6307L68.8324 13.3063H70.6193V25.6699H69.2188V16.2765H69.098L65.2344 25.6699H63.8821L60.0185 16.2765H59.8977V25.6699H58.4972V13.3063ZM81.7348 13.3063H83.232V21.4924C83.232 22.3375 83.0328 23.0922 82.6343 23.7562C82.2399 24.4163 81.6825 24.9374 80.9621 25.3198C80.2417 25.6981 79.3965 25.8873 78.4266 25.8873C77.4566 25.8873 76.6115 25.6981 75.8911 25.3198C75.1707 24.9374 74.6112 24.4163 74.2128 23.7562C73.8184 23.0922 73.6212 22.3375 73.6212 21.4924V13.3063H75.1183V21.3716C75.1183 21.9753 75.2512 22.5126 75.5168 22.9835C75.7824 23.4503 76.1607 23.8186 76.6517 24.0882C77.1468 24.3539 77.7384 24.4867 78.4266 24.4867C79.1148 24.4867 79.7064 24.3539 80.2014 24.0882C80.6965 23.8186 81.0748 23.4503 81.3364 22.9835C81.602 22.5126 81.7348 21.9753 81.7348 21.3716V13.3063ZM96.0257 13.3063V25.6699H94.5769L87.8397 15.9625H87.7189V25.6699H86.2218V13.3063H87.6706L94.432 23.0378H94.5527V13.3063H96.0257ZM102.837 25.6699H99.0216V13.3063H103.006C104.205 13.3063 105.232 13.5538 106.085 14.0488C106.938 14.5398 107.592 15.2462 108.047 16.1678C108.502 17.0854 108.729 18.1841 108.729 19.464C108.729 20.7518 108.5 21.8606 108.041 22.7903C107.582 23.716 106.914 24.4283 106.036 24.9274C105.159 25.4224 104.093 25.6699 102.837 25.6699ZM100.519 24.3418H102.74C103.763 24.3418 104.61 24.1446 105.282 23.7502C105.954 23.3558 106.455 22.7943 106.785 22.0659C107.115 21.3374 107.28 20.4701 107.28 19.464C107.28 18.4658 107.117 17.6066 106.791 16.8862C106.465 16.1618 105.978 15.6064 105.33 15.22C104.682 14.8296 103.875 14.6344 102.909 14.6344H100.519V24.3418ZM112.737 13.3063V25.6699H111.24V13.3063H112.737ZM122.501 16.3972C122.428 15.7855 122.134 15.3105 121.619 14.9725C121.104 14.6344 120.472 14.4654 119.724 14.4654C119.176 14.4654 118.697 14.5539 118.287 14.731C117.88 14.9081 117.563 15.1516 117.333 15.4615C117.108 15.7714 116.995 16.1235 116.995 16.5179C116.995 16.848 117.074 17.1317 117.23 17.3691C117.391 17.6026 117.597 17.7978 117.846 17.9547C118.096 18.1077 118.357 18.2344 118.631 18.335C118.905 18.4316 119.156 18.5101 119.386 18.5705L120.641 18.9086C120.963 18.9931 121.321 19.1098 121.716 19.2587C122.114 19.4076 122.495 19.6109 122.857 19.8684C123.223 20.122 123.525 20.448 123.762 20.8464C124 21.2449 124.119 21.7338 124.119 22.3134C124.119 22.9815 123.944 23.5852 123.593 24.1245C123.247 24.6638 122.74 25.0924 122.072 25.4103C121.408 25.7283 120.601 25.8873 119.651 25.8873C118.766 25.8873 117.999 25.7444 117.351 25.4586C116.707 25.1729 116.2 24.7744 115.83 24.2633C115.464 23.7522 115.256 23.1586 115.208 22.4824H116.754C116.794 22.9493 116.951 23.3356 117.224 23.6415C117.502 23.9434 117.852 24.1687 118.275 24.3176C118.701 24.4625 119.16 24.535 119.651 24.535C120.223 24.535 120.736 24.4424 121.191 24.2573C121.645 24.0681 122.006 23.8065 122.271 23.4725C122.537 23.1344 122.67 22.74 122.67 22.2892C122.67 21.8787 122.555 21.5447 122.326 21.2871C122.096 21.0295 121.794 20.8203 121.42 20.6593C121.046 20.4983 120.641 20.3574 120.207 20.2367L118.685 19.802C117.719 19.5243 116.955 19.1279 116.391 18.6127C115.828 18.0976 115.546 17.4235 115.546 16.5904C115.546 15.8981 115.733 15.2944 116.108 14.7793C116.486 14.2601 116.993 13.8577 117.629 13.5719C118.269 13.2821 118.983 13.1373 119.772 13.1373C120.569 13.1373 121.277 13.2801 121.897 13.5659C122.517 13.8476 123.008 14.234 123.37 14.725C123.736 15.216 123.929 15.7734 123.95 16.3972H122.501Z" fill="#2A2A2A"/>
<path d="M136.881 25.6689V18.3962H141.27V19.1775H137.761V21.6349H141.043V22.4161H137.761V24.8877H141.327V25.6689H136.881ZM143.283 18.3962L145.158 21.4218H145.215L147.09 18.3962H148.127L145.84 22.0326L148.127 25.6689H147.09L145.215 22.7002H145.158L143.283 25.6689H142.246L144.59 22.0326L142.246 18.3962H143.283ZM149.273 25.6689V18.3962H151.731C152.301 18.3962 152.768 18.4992 153.13 18.7052C153.494 18.9088 153.764 19.1846 153.939 19.5326C154.115 19.8806 154.202 20.2689 154.202 20.6974C154.202 21.1259 154.115 21.5153 153.939 21.8657C153.767 22.2161 153.499 22.4954 153.137 22.7037C152.775 22.9097 152.311 23.0127 151.745 23.0127H149.983V22.2314H151.716C152.107 22.2314 152.421 22.164 152.657 22.029C152.894 21.8941 153.066 21.7118 153.172 21.4822C153.281 21.2501 153.336 20.9885 153.336 20.6974C153.336 20.4062 153.281 20.1457 153.172 19.9161C153.066 19.6865 152.893 19.5065 152.654 19.3763C152.415 19.2438 152.098 19.1775 151.702 19.1775H150.154V25.6689H149.273ZM155.621 25.6689V18.3962H156.502V24.8877H159.882V25.6689H155.621ZM167.099 22.0326C167.099 22.7996 166.961 23.4625 166.684 24.0212C166.407 24.5799 166.027 25.0108 165.544 25.3138C165.061 25.6169 164.509 25.7684 163.889 25.7684C163.269 25.7684 162.717 25.6169 162.234 25.3138C161.751 25.0108 161.371 24.5799 161.094 24.0212C160.817 23.4625 160.679 22.7996 160.679 22.0326C160.679 21.2655 160.817 20.6027 161.094 20.0439C161.371 19.4852 161.751 19.0544 162.234 18.7513C162.717 18.4483 163.269 18.2968 163.889 18.2968C164.509 18.2968 165.061 18.4483 165.544 18.7513C166.027 19.0544 166.407 19.4852 166.684 20.0439C166.961 20.6027 167.099 21.2655 167.099 22.0326ZM166.247 22.0326C166.247 21.4028 166.141 20.8714 165.931 20.4381C165.722 20.0049 165.44 19.677 165.082 19.4545C164.727 19.2319 164.329 19.1206 163.889 19.1206C163.449 19.1206 163.05 19.2319 162.692 19.4545C162.337 19.677 162.054 20.0049 161.843 20.4381C161.635 20.8714 161.531 21.4028 161.531 22.0326C161.531 22.6623 161.635 23.1938 161.843 23.627C162.054 24.0603 162.337 24.3882 162.692 24.6107C163.05 24.8332 163.449 24.9445 163.889 24.9445C164.329 24.9445 164.727 24.8332 165.082 24.6107C165.44 24.3882 165.722 24.0603 165.931 23.627C166.141 23.1938 166.247 22.6623 166.247 22.0326ZM168.58 25.6689V18.3962H171.037C171.605 18.3962 172.072 18.4933 172.436 18.6874C172.801 18.8792 173.071 19.1431 173.246 19.4793C173.421 19.8155 173.509 20.1978 173.509 20.6263C173.509 21.0548 173.421 21.4348 173.246 21.7662C173.071 22.0977 172.802 22.3581 172.44 22.5475C172.078 22.7345 171.615 22.828 171.051 22.828H169.063V22.0326H171.023C171.411 22.0326 171.724 21.9758 171.961 21.8621C172.2 21.7485 172.373 21.5875 172.479 21.3792C172.588 21.1685 172.642 20.9175 172.642 20.6263C172.642 20.3351 172.588 20.0806 172.479 19.8628C172.37 19.645 172.196 19.4769 171.957 19.3586C171.718 19.2378 171.402 19.1775 171.009 19.1775H169.461V25.6689H168.58ZM172.003 22.4019L173.793 25.6689H172.77L171.009 22.4019H172.003ZM174.976 25.6689V18.3962H179.366V19.1775H175.857V21.6349H179.138V22.4161H175.857V24.8877H179.422V25.6689H174.976ZM180.953 25.6689V18.3962H183.41C183.979 18.3962 184.445 18.4933 184.809 18.6874C185.174 18.8792 185.444 19.1431 185.619 19.4793C185.794 19.8155 185.882 20.1978 185.882 20.6263C185.882 21.0548 185.794 21.4348 185.619 21.7662C185.444 22.0977 185.175 22.3581 184.813 22.5475C184.451 22.7345 183.988 22.828 183.425 22.828H181.436V22.0326H183.396C183.784 22.0326 184.097 21.9758 184.334 21.8621C184.573 21.7485 184.746 21.5875 184.852 21.3792C184.961 21.1685 185.015 20.9175 185.015 20.6263C185.015 20.3351 184.961 20.0806 184.852 19.8628C184.743 19.645 184.569 19.4769 184.33 19.3586C184.091 19.2378 183.775 19.1775 183.382 19.1775H181.834V25.6689H180.953ZM184.376 22.4019L186.166 25.6689H185.143L183.382 22.4019H184.376Z" fill="#B8B8B8"/>
<defs>
<linearGradient id="paint0_linear_1_5" x1="8.83995" y1="29.41" x2="29.9269" y2="16.38" gradientUnits="userSpaceOnUse">
<stop stop-color="#29ABE2"/>
<stop offset="1" stop-color="#29ABE2" stop-opacity="0.302"/>
</linearGradient>
</defs>
</svg>
