<svg width="43" height="22" viewBox="0 0 43 22" fill="none" xmlns="http://www.w3.org/2000/svg">
<g style="mix-blend-mode:multiply">
<path d="M6.82291 6.32841C6.81789 5.97258 6.90789 5.62185 7.08364 5.31242C7.25939 5.00298 7.51452 4.74605 7.82271 4.56811C8.1309 4.39018 8.48098 4.2977 8.83683 4.30021C9.19269 4.30273 9.54143 4.40014 9.84707 4.58241L20.572 10.9766C20.8716 11.1551 21.1193 11.4089 21.2906 11.7127C21.4618 12.0166 21.5506 12.3599 21.5482 12.7086C21.5457 13.0574 21.4522 13.3994 21.2767 13.7008C21.1012 14.0023 20.85 14.2525 20.548 14.4269L9.99803 20.5179C9.69602 20.6923 9.35365 20.7847 9.0049 20.786C8.65614 20.7872 8.31312 20.6972 8.00987 20.525C7.70663 20.3527 7.4537 20.1041 7.27619 19.8039C7.09868 19.5037 7.00276 19.1623 6.99795 18.8136L6.82291 6.32841Z" fill="#F143AB"/>
</g>
<g style="mix-blend-mode:multiply">
<path d="M16.8229 6.32841C16.8179 5.97258 16.9079 5.62185 17.0836 5.31242C17.2594 5.00298 17.5145 4.74605 17.8227 4.56811C18.1309 4.39018 18.481 4.2977 18.8368 4.30021C19.1927 4.30273 19.5414 4.40014 19.8471 4.58241L30.572 10.9766C30.8716 11.1551 31.1193 11.4089 31.2906 11.7127C31.4618 12.0166 31.5506 12.3599 31.5482 12.7086C31.5457 13.0574 31.4522 13.3994 31.2767 13.7008C31.1012 14.0023 30.85 14.2525 30.548 14.4269L19.998 20.5179C19.696 20.6923 19.3537 20.7847 19.0049 20.786C18.6561 20.7872 18.3131 20.6972 18.0099 20.525C17.7066 20.3527 17.4537 20.1041 17.2762 19.8039C17.0987 19.5037 17.0028 19.1623 16.998 18.8136L16.8229 6.32841Z" fill="#0066FF"/>
</g>
<g style="mix-blend-mode:multiply">
<path d="M27.3229 6.32841C27.3179 5.97258 27.4079 5.62185 27.5836 5.31242C27.7594 5.00298 28.0145 4.74605 28.3227 4.56811C28.6309 4.39018 28.981 4.2977 29.3368 4.30021C29.6927 4.30273 30.0414 4.40014 30.3471 4.58241L41.072 10.9766C41.3716 11.1551 41.6193 11.4089 41.7906 11.7127C41.9618 12.0166 42.0506 12.3599 42.0482 12.7086C42.0457 13.0574 41.9522 13.3994 41.7767 13.7008C41.6012 14.0023 41.35 14.2525 41.048 14.4269L30.498 20.5179C30.196 20.6923 29.8537 20.7847 29.5049 20.786C29.1561 20.7872 28.8131 20.6972 28.5099 20.525C28.2066 20.3527 27.9537 20.1041 27.7762 19.8039C27.5987 19.5037 27.5028 19.1623 27.498 18.8136L27.3229 6.32841Z" fill="#33A451"/>
</g>
</svg>
