<svg width="50" height="22" viewBox="0 0 50 22" fill="none" xmlns="http://www.w3.org/2000/svg">
<g style="mix-blend-mode:multiply">
<path d="M40.6528 4.58241C40.9585 4.40015 41.3072 4.30273 41.6631 4.30022C42.0189 4.29771 42.369 4.39019 42.6772 4.56812C42.9854 4.74605 43.2405 5.00299 43.4163 5.31242C43.592 5.62186 43.682 5.97258 43.677 6.32841L43.502 18.8136C43.4972 19.1623 43.4012 19.5037 43.2237 19.8039C43.0462 20.1041 42.7933 20.3527 42.49 20.525C42.1868 20.6972 41.8438 20.7872 41.495 20.786C41.1463 20.7847 40.8039 20.6923 40.5019 20.5179L29.952 14.4269C29.6499 14.2525 29.3987 14.0023 29.2232 13.7008C29.0478 13.3994 28.9542 13.0574 28.9517 12.7086C28.9493 12.3599 29.0381 12.0166 29.2093 11.7127C29.3806 11.4089 29.6283 11.1551 29.9279 10.9766L40.6528 4.58241Z" fill="#F143AB"/>
</g>
<g style="mix-blend-mode:multiply">
<path d="M6.32194 6.32841C6.31691 5.97258 6.40692 5.62185 6.58267 5.31242C6.75842 5.00298 7.01355 4.74605 7.32174 4.56811C7.62992 4.39018 7.98 4.2977 8.33586 4.30021C8.69171 4.30273 9.04045 4.40014 9.3461 4.58241L20.0711 10.9766C20.3707 11.1551 20.6184 11.4089 20.7896 11.7127C20.9608 12.0166 21.0496 12.3599 21.0472 12.7086C21.0448 13.0574 20.9512 13.3994 20.7757 13.7008C20.6003 14.0023 20.349 14.2525 20.047 14.4269L9.49705 20.5179C9.19505 20.6923 8.85268 20.7847 8.50392 20.786C8.15516 20.7872 7.81214 20.6972 7.5089 20.525C7.20565 20.3527 6.95273 20.1041 6.77522 19.8039C6.59771 19.5037 6.50179 19.1623 6.49697 18.8136L6.32194 6.32841Z" fill="#33A451"/>
</g>
<g style="mix-blend-mode:multiply">
<path d="M30 4H19C17.3431 4 16 5.34315 16 7V18C16 19.6569 17.3431 21 19 21H30C31.6569 21 33 19.6569 33 18V7C33 5.34315 31.6569 4 30 4Z" fill="#0066FF"/>
</g>
</svg>
