<svg width="40" height="22" viewBox="0 0 40 22" fill="none" xmlns="http://www.w3.org/2000/svg">
<g style="mix-blend-mode:multiply">
<path d="M26 0.000976562H15C13.3431 0.000976562 12 1.34412 12 3.00098V14.001C12 15.6578 13.3431 17.001 15 17.001H26C27.6569 17.001 29 15.6578 29 14.001V3.00098C29 1.34412 27.6569 0.000976562 26 0.000976562Z" fill="#0066FF"/>
</g>
<g style="mix-blend-mode:multiply">
<path d="M37 5.00098H26C24.3431 5.00098 23 6.34412 23 8.00098V19.001C23 20.6578 24.3431 22.001 26 22.001H37C38.6569 22.001 40 20.6578 40 19.001V8.00098C40 6.34412 38.6569 5.00098 37 5.00098Z" fill="#F143AB"/>
</g>
<g style="mix-blend-mode:multiply">
<path d="M14 5.00098H3C1.34315 5.00098 0 6.34412 0 8.00098V19.001C0 20.6578 1.34315 22.001 3 22.001H14C15.6569 22.001 17 20.6578 17 19.001V8.00098C17 6.34412 15.6569 5.00098 14 5.00098Z" fill="#F9E322"/>
</g>
</svg>
